<svg viewBox="0 0 400 120" xmlns="http://www.w3.org/2000/svg">
  <!-- Background Circle with Gradient -->
  <defs>
    <linearGradient id="logoGradient" x1="0%" y1="0%" x2="100%" y2="100%">
      <stop offset="0%" stop-color="#ff6b00" />
      <stop offset="100%" stop-color="#ff9d00" />
    </linearGradient>
  </defs>
  
  <!-- Main Logo Elements - Scaled up -->
  <g transform="translate(50, 20) scale(1.4)">
    <!-- Main Circle -->
    <circle cx="25" cy="25" r="25" fill="url(#logoGradient)" />
    
    <!-- Circuit Lines -->
    <path d="M25,10 L25,5 L45,5 L45,15 L50,15" stroke="white" stroke-width="2" fill="none" />
    <path d="M25,40 L25,45 L40,45 L40,35 L50,35" stroke="white" stroke-width="2" fill="none" />
    <path d="M5,25 L15,25" stroke="white" stroke-width="2" fill="none" />
    
    <!-- "N" Symbol -->
    <path d="M15,15 L20,15 L20,35 L15,35 L15,15 M20,15 L35,35 M30,15 L35,15 L35,35 L30,35 L30,15" 
          stroke="white" stroke-width="3" fill="none" stroke-linecap="round" stroke-linejoin="round" />
    
    <!-- Digital Dots -->
    <circle cx="5" cy="25" r="2" fill="white" />
    <circle cx="50" cy="15" r="2" fill="white" />
    <circle cx="50" cy="35" r="2" fill="white" />
    <circle cx="45" cy="5" r="2" fill="white" />
    <circle cx="40" cy="45" r="2" fill="white" />
  </g>
  
  <!-- Text - Scaled up -->
  <g transform="translate(130, 40) scale(1.4)">
    <!-- NILEBIT -->
    <text x="0" y="0" font-family="Arial, sans-serif" font-weight="700" font-size="22" fill="#ffffff">
      NILEBIT
    </text>
    <!-- LABS -->
    <text x="0" y="24" font-family="Arial, sans-serif" font-weight="500" font-size="20" fill="#ff7b00">
      LABS
    </text>
    
    <!-- Digital Lines -->
    <line x1="0" y1="6" x2="105" y2="6" stroke="#444444" stroke-width="1" />
    <line x1="0" y1="30" x2="60" y2="30" stroke="#444444" stroke-width="1" />
  </g>
</svg>